<svg xmlns="http://www.w3.org/2000/svg" width="200" height="200" aria-hidden="true" data-bbox="85 78.132 29 42.334" data-type="color" viewBox="85 78.132 29 42.334"><defs><style>#comp-jvrqhagx svg [data-color=&quot;1&quot;]{fill:#0c3c60}</style></defs><path fill="#8CC63F" d="M101.169 79.031a1.999 1.999 0 0 0-3.338 0C96.518 81.02 85 98.671 85 105.966c0 7.995 6.504 14.5 14.5 14.5s14.5-6.504 14.5-14.5c0-7.295-11.518-24.946-12.831-26.935zM99.5 116.466c-5.79 0-10.5-4.71-10.5-10.5 0-4.457 6.531-15.803 10.5-22.131 3.969 6.328 10.5 17.675 10.5 22.131 0 5.79-4.71 10.5-10.5 10.5z" data-color="1"/><path fill="#8CC63F" d="M102.838 96.212a2 2 0 1 0-3.677 1.575l3 7a2 2 0 1 0 3.677-1.575l-3-7z" data-color="1"/></svg>