<svg xmlns="http://www.w3.org/2000/svg" width="200" height="200" aria-hidden="true" data-bbox="43.998 30.403 112.009 139.197" data-type="color" viewBox="43.998 30.403 112.009 139.197"><defs><style>#comp-jvrqhaej svg [data-color=&quot;1&quot;]{fill:#fff}</style></defs><path fill="#5DC15D" d="m87.478 30.73 1.99 7.442-5.681 1.519-1.99-7.443 5.681-1.519zM62.599 54.082l-5.439-5.448 4.158-4.165 5.439 5.448-4.158 4.165zM45.524 69.479l7.43 1.993-1.526 5.689-7.43-1.993 1.526-5.69zM51.754 97.046l1.522 5.69-7.432 1.988-1.522-5.69 7.432-1.988zM62.204 129.404l-4.158-4.165 5.439-5.449 4.158 4.165-5.439 5.449zM138.684 128.516l-5.44-5.448 4.159-4.165 5.439 5.448-4.158 4.165zM148.578 95.839l7.429 1.994-1.527 5.688-7.429-1.993 1.527-5.689zM154.153 68.265l1.523 5.69-7.431 1.988-1.522-5.69 7.43-1.988zM136.515 53.194l-4.158-4.165 5.442-5.449 4.158 4.165-5.442 5.449zM111.314 30.403l5.68 1.524-1.997 7.44-5.68-1.523 1.997-7.441zM94.057 110.301C84.17 108.01 77.57 97.216 78.698 89.806c1.472-9.661 7.563-14.904 12.937-19.531 3.654-3.145 7.106-6.117 8.997-10.217l1.314-2.852 2.757 1.497c10.45 5.674 19.197 18.9 15.705 33.2-2.484 10.165-14.672 14.883-18.346 16.088l-1.829-5.6c2.098-.686 12.654-4.489 14.461-11.888 2.51-10.27-3.012-19.908-10.321-25.08-2.425 3.744-5.708 6.57-8.904 9.32-5.047 4.345-9.813 8.448-10.956 15.953-.586 3.85 3.502 12.159 10.871 13.867l-1.327 5.738z" data-color="1"/><path fill="#5DC15D" d="M95.402 120.808c-7.461-15.474-2.106-29.131 2.195-40.106.731-1.864 1.443-3.678 2.068-5.441l5.542 1.973c-.646 1.821-1.381 3.695-2.137 5.622-4.085 10.421-8.716 22.235-2.373 35.389l-5.295 2.563zM103.318 169.6h-8.316l-5.882-5.891h-4.663v-5.891h7.099l5.881 5.891h3.446l5.881-5.891h7.099v5.891H109.2l-5.882 5.891zM119.745 137.2v5.891H78.576V137.2h41.169zM119.745 148.982v5.891H78.576v-5.891h41.169z" data-color="1"/><path fill="#5DC15D" d="M119.745 134.254h-5.881v-5.891c0-7.004 2.88-13.916 7.906-18.964 6.008-6.038 9.738-15.701 9.738-25.218 0-17.866-14.511-32.4-32.347-32.4s-32.347 14.535-32.347 32.4c0 9.518 3.732 19.18 9.739 25.218 5.024 5.048 7.904 11.96 7.904 18.964v5.891h-5.881v-5.891c0-5.457-2.256-10.854-6.189-14.805-7.066-7.101-11.455-18.357-11.455-29.377 0-21.115 17.148-38.291 38.228-38.291 21.078 0 38.228 17.177 38.228 38.291 0 11.018-4.388 22.275-11.455 29.377-3.931 3.952-6.189 9.348-6.189 14.805v5.891z" data-color="1"/></svg>